name C:\Users\r0593348\3dpredictsim\Results\Batchsim_tmt_linear_v2\Pog_s1_tmt_aCst_d00_k500_ig24_act.mot
datacolumns 128
datarows 4
range 1.46883637 1.51290146
endheader
time	pelvis_tilt	pelvis_list	pelvis_rotation	pelvis_tx	pelvis_ty	pelvis_tz	hip_flexion_l	hip_adduction_l	hip_rotation_l	hip_flexion_r	hip_adduction_r	hip_rotation_r	knee_angle_l	knee_angle_r	ankle_angle_l	ankle_angle_r	subtalar_angle_l	subtalar_angle_r	tmt_angle_l	tmt_angle_r	mtp_angle_l	mtp_angle_r	lumbar_extension	lumbar_bending	lumbar_rotation	arm_flex_l	arm_add_l	arm_rot_l	arm_flex_r	arm_add_r	arm_rot_r	elbow_flex_l	elbow_flex_r	pro_sup_l	pro_sup_r	glut_med1_l/activation	glut_med2_l/activation	glut_med3_l/activation	glut_min1_l/activation	glut_min2_l/activation	glut_min3_l/activation	semimem_l/activation	semiten_l/activation	bifemlh_l/activation	bifemsh_l/activation	sar_l/activation	add_long_l/activation	add_brev_l/activation	add_mag1_l/activation	add_mag2_l/activation	add_mag3_l/activation	tfl_l/activation	pect_l/activation	grac_l/activation	glut_max1_l/activation	glut_max2_l/activation	glut_max3_l/activation	iliacus_l/activation	psoas_l/activation	quad_fem_l/activation	gem_l/activation	peri_l/activation	rect_fem_l/activation	vas_med_l/activation	vas_int_l/activation	vas_lat_l/activation	med_gas_l/activation	lat_gas_l/activation	soleus_l/activation	tib_post_l/activation	flex_dig_l/activation	flex_hal_l/activation	tib_ant_l/activation	per_brev_l/activation	per_long_l/activation	per_tert_l/activation	ext_dig_l/activation	ext_hal_l/activation	ercspn_l/activation	intobl_l/activation	extobl_l/activation	glut_med1_r/activation	glut_med2_r/activation	glut_med3_r/activation	glut_min1_r/activation	glut_min2_r/activation	glut_min3_r/activation	semimem_r/activation	semiten_r/activation	bifemlh_r/activation	bifemsh_r/activation	sar_r/activation	add_long_r/activation	add_brev_r/activation	add_mag1_r/activation	add_mag2_r/activation	add_mag3_r/activation	tfl_r/activation	pect_r/activation	grac_r/activation	glut_max1_r/activation	glut_max2_r/activation	glut_max3_r/activation	iliacus_r/activation	psoas_r/activation	quad_fem_r/activation	gem_r/activation	peri_r/activation	rect_fem_r/activation	vas_med_r/activation	vas_int_r/activation	vas_lat_r/activation	med_gas_r/activation	lat_gas_r/activation	soleus_r/activation	tib_post_r/activation	flex_dig_r/activation	flex_hal_r/activation	tib_ant_r/activation	per_brev_r/activation	per_long_r/activation	per_tert_r/activation	ext_dig_r/activation	ext_hal_r/activation	ercspn_r/activation	intobl_r/activation	extobl_r/activation	
          1.46883637	          0.43624992	          2.43414099	          9.49474571	          1.83604546	          0.84998955	         -0.00011280	        -21.28331542	         -1.74149196	         -2.03024142	         29.21927077	         -3.11739564	         -0.10336476	        -20.79119256	         -9.46468557	        -27.05476899	         10.74885889	          1.68524714	         -0.53691791	          1.06791077	          0.04431299	         39.24300478	         -0.02143447	          0.28916692	         -6.09556837	         -2.82278929	        -12.72338236	        -14.30754011	         13.78380619	          0.16583174	        -13.46317909	         10.90317223	         11.30312412	         22.63209449	         86.51662706	         86.51662706	          0.06356794	          0.06223758	          0.06224027	          0.07279445	          0.05001113	          0.06184854	          0.12911903	          0.05000279	          0.05000754	          0.05000136	          0.05562359	          0.32328273	          0.20254740	          0.15961063	          0.06226472	          0.05002860	          0.07388838	          0.09557203	          0.06224196	          0.05009962	          0.05006898	          0.05017736	          0.25139400	          0.46403320	          0.09870051	          0.06224050	          0.06224126	          0.26133921	          0.06013470	          0.09644403	          0.08012729	          0.06215300	          0.08226565	          0.18334538	          0.10997592	          0.09644652	          0.10971687	          0.16610054	          0.26100729	          0.13859483	          0.52905423	          0.82571948	          0.55121455	          0.07708830	          0.05000056	          0.06223887	          0.18950639	          0.05000287	          0.32452935	          0.05000383	          0.05000268	          0.05000389	          0.10912762	          0.12717933	          0.10816930	          0.12003473	          0.06224435	          0.06224101	          0.06237341	          0.18909883	          0.21787353	          0.21467910	          0.05000262	          0.06224454	          0.15699868	          0.05000374	          0.16647603	          0.24019284	          0.06838812	          0.06265448	          0.21373817	          0.05001591	          0.30350819	          0.06223986	          0.05021143	          0.22503632	          0.15429088	          0.06224061	          0.06224181	          0.06223926	          0.06224034	          0.05000427	          0.05001462	          0.60333011	          0.35442504	          0.21884660	          0.47059505	          0.65217098	          0.47390072	          0.05000043	          0.14317555	          0.08982644	
          1.48352473	          0.44393038	          2.70809887	          9.34449913	          1.86262913	          0.84691656	          0.00047450	        -20.97183616	         -1.94248380	         -2.15883361	         28.50182745	         -3.03882812	         -0.04940992	        -23.45161850	        -11.17519793	        -29.06749387	          9.62839227	          1.87006834	         -0.87391004	          0.66510635	         -0.00934286	         34.07144490	         -0.18298722	          0.60750464	         -5.82310657	         -2.95726690	        -12.80016935	        -14.46133900	         13.57707961	         -2.17363268	        -13.50744533	         11.51468770	         11.11215456	         22.12743268	         86.51662706	         86.51662706	          0.09644970	          0.05000065	          0.05000040	          0.07752537	          0.05001527	          0.05000157	          0.18816165	          0.05000041	          0.05000170	          0.05000035	          0.05000741	          0.25970624	          0.16271546	          0.12822242	          0.05002511	          0.05000582	          0.06224730	          0.07677933	          0.05000234	          0.05000832	          0.05000593	          0.05000502	          0.20195479	          0.44188504	          0.07929012	          0.05000237	          0.05000261	          0.20994384	          0.07747931	          0.07748364	          0.06437554	          0.07560127	          0.06608854	          0.14728957	          0.08834789	          0.07747991	          0.08813997	          0.23918981	          0.25427178	          0.12711543	          0.59178340	          0.91194461	          0.44281175	          0.12260937	          0.05000006	          0.05000027	          0.30689598	          0.41469484	          0.58305769	          0.13375754	          0.35804558	          0.37647393	          0.08766648	          0.10216831	          0.08689681	          0.09642859	          0.05000745	          0.05000081	          0.05010716	          0.15191077	          0.17502719	          0.20786187	          0.05000281	          0.05000509	          0.12612347	          0.33442098	          0.27774474	          0.25855902	          0.05493890	          0.05033285	          0.23774956	          0.12043491	          0.32150862	          0.05000076	          0.07721868	          0.18078220	          0.12394942	          0.05000031	          0.05000133	          0.05000005	          0.05000059	          0.06224060	          0.06224017	          0.79958280	          0.48671697	          0.23199319	          0.73251858	          0.82425943	          0.73418682	          0.06599193	          0.11501846	          0.07216103	
          1.49821309	          0.45742704	          2.91923317	          9.14527042	          1.88816994	          0.84398041	          0.00114602	        -20.25927106	         -2.16504972	         -2.19719249	         28.07860358	         -2.91933137	         -0.05506527	        -26.59791762	        -13.19720300	        -30.32453134	          8.10242663	          2.08519100	         -1.24058465	          0.23145578	         -0.05350561	         26.54538320	         -0.21067871	          0.84053050	         -5.46854929	         -3.06689059	        -12.61571876	        -14.54076561	         13.32457838	         -4.27903056	        -13.54346400	         12.34798994	         10.73182970	         21.33974636	         86.51662706	         86.51662706	          0.07748213	          0.06226532	          0.07747803	          0.06228041	          0.05002847	          0.05010465	          0.28572774	          0.08190376	          0.12282512	          0.05000271	          0.05000498	          0.26898738	          0.20326651	          0.24144158	          0.10519766	          0.07749146	          0.05000673	          0.06169109	          0.08597659	          0.05366038	          0.06224579	          0.06464549	          0.16223822	          0.38015876	          0.07988636	          0.05005440	          0.05000789	          0.16865591	          0.06224217	          0.06224565	          0.05171538	          0.12441032	          0.07666397	          0.11832384	          0.07097328	          0.06224359	          0.07080646	          0.31715050	          0.20768155	          0.10846049	          0.57786060	          0.95550976	          0.45993455	          0.17026570	          0.05000011	          0.05000017	          0.35993674	          0.51240939	          0.66488788	          0.23992629	          0.28765051	          0.42198957	          0.07042594	          0.08207633	          0.06980788	          0.07746489	          0.05000108	          0.06223779	          0.06227931	          0.18232575	          0.22124950	          0.21372672	          0.05000190	          0.05008112	          0.10132100	          0.36247532	          0.32648941	          0.29633817	          0.05000041	          0.05000041	          0.19099449	          0.09675176	          0.32937525	          0.05000026	          0.32552919	          0.38931666	          0.29680369	          0.05000008	          0.05000013	          0.05000002	          0.05000004	          0.05000071	          0.05000044	          0.88090274	          0.39099845	          0.18636906	          0.86485440	          0.79814543	          0.69877348	          0.08217111	          0.09239873	          0.05796977	
          1.51290146	          0.47197588	          3.04925258	          8.90617568	          1.91218830	          0.84187693	          0.00189963	        -19.10925909	         -2.39618144	         -2.15494958	         28.02076081	         -2.73095756	         -0.09195720	        -30.00273720	        -15.59331589	        -31.21080410	          6.37549323	          2.31318346	         -1.71133205	         -0.20758689	         -0.08810542	         17.44743854	         -0.33573566	          0.97159331	         -5.02668710	         -3.15902854	        -12.06883905	        -14.51949754	         13.10652442	         -6.09976103	        -13.55149272	         13.39158243	         10.11166118	         20.31789455	         86.51662706	         86.51662706	          0.06224498	          0.05002062	          0.06224138	          0.05003581	          0.05000515	          0.05000671	          0.28281505	          0.06579668	          0.09867284	          0.05000097	          0.05534092	          0.21609539	          0.27941254	          0.28711180	          0.10343986	          0.06225639	          0.06221549	          0.11466697	          0.08407182	          0.05001637	          0.05001785	          0.05193789	          0.13033245	          0.30539626	          0.27864538	          0.14193340	          0.06224277	          0.30151234	          0.05000184	          0.05000472	          0.06224027	          0.09994419	          0.06158875	          0.09505421	          0.05701558	          0.05000330	          0.05688171	          0.32845978	          0.24775396	          0.10825186	          0.78671307	          0.97752114	          0.52714705	          0.20535146	          0.06129275	          0.05000069	          0.44103272	          0.61341375	          0.67109806	          0.19274389	          0.25501268	          0.33900522	          0.05657608	          0.06593538	          0.05607992	          0.06223066	          0.05000341	          0.05000057	          0.05003165	          0.14646997	          0.17774302	          0.22375504	          0.05000510	          0.05000302	          0.08139546	          0.40583626	          0.36945614	          0.31947604	          0.05000050	          0.05000060	          0.16016500	          0.07772714	          0.26460034	          0.05000235	          0.57393281	          0.60596889	          0.47827200	          0.05000043	          0.05000259	          0.05000029	          0.18944633	          0.23944752	          0.22297574	          0.93982614	          0.31410400	          0.14971741	          0.69477053	          0.64118069	          0.56135217	          0.06601128	          0.07422744	          0.05000022	
